HIERARCHY
ROOT Hips
{
	OFFSET 0.00000 0.00000 0.00000
	CHANNELS 6 Xposition Yposition Zposition Zrotation Yrotation Xrotation 
	JOINT LHipJoint
	{
		OFFSET 0 0 0
		CHANNELS 3 Zrotation Yrotation Xrotation
		JOINT LeftUpLeg
		{
			OFFSET 2.36090 -1.39315 1.24752
			CHANNELS 3 Zrotation Yrotation Xrotation
			JOINT LeftLeg
			{
				OFFSET 2.06810 -5.68207 0.00000
				CHANNELS 3 Zrotation Yrotation Xrotation
				JOINT LeftFoot
				{
					OFFSET 2.46631 -6.77613 0.00000
					CHANNELS 3 Zrotation Yrotation Xrotation
					JOINT LeftToeBase
					{
						OFFSET 0.26031 -0.71520 1.99545
						CHANNELS 3 Zrotation Yrotation Xrotation
						End Site
						{
							OFFSET 0.00000 -0.00000 1.05957
						}
					}
				}
			}
		}
	}
	JOINT RHipJoint
	{
		OFFSET 0 0 0
		CHANNELS 3 Zrotation Yrotation Xrotation
		JOINT RightUpLeg
		{
			OFFSET -2.25243 -1.39315 1.24752
			CHANNELS 3 Zrotation Yrotation Xrotation
			JOINT RightLeg
			{
				OFFSET -2.17343 -5.97145 0.00000
				CHANNELS 3 Zrotation Yrotation Xrotation
				JOINT RightFoot
				{
					OFFSET -2.52372 -6.93386 0.00000
					CHANNELS 3 Zrotation Yrotation Xrotation
					JOINT RightToeBase
					{
						OFFSET -0.22538 -0.61923 2.11447
						CHANNELS 3 Zrotation Yrotation Xrotation
						End Site
						{
							OFFSET -0.00000 -0.00000 1.10506
						}
					}
				}
			}
		}
	}
	JOINT LowerBack
	{
		OFFSET 0 0 0
		CHANNELS 3 Zrotation Yrotation Xrotation
		JOINT Spine
		{
			OFFSET 0.01594 2.13103 0.08007
			CHANNELS 3 Zrotation Yrotation Xrotation
			JOINT Spine1
			{
				OFFSET 0.01393 2.09723 0.18338
				CHANNELS 3 Zrotation Yrotation Xrotation
				JOINT Neck
				{
					OFFSET 0 0 0
					CHANNELS 3 Zrotation Yrotation Xrotation
					JOINT Neck1
					{
						OFFSET 0.05351 1.38915 0.32494
						CHANNELS 3 Zrotation Yrotation Xrotation
						JOINT Head
						{
							OFFSET 0.00711 1.45992 -0.21666
							CHANNELS 3 Zrotation Yrotation Xrotation
							End Site
							{
								OFFSET -0.00433 1.47702 -0.11056
							}
						}
					}
				}
				JOINT LeftShoulder
				{
					OFFSET 0 0 0
					CHANNELS 3 Zrotation Yrotation Xrotation
					JOINT LeftArm
					{
						OFFSET 2.87198 0.92249 0.11132
						CHANNELS 3 Zrotation Yrotation Xrotation
						JOINT LeftForeArm
						{
							OFFSET 5.52731 -0.00000 0.00000
							CHANNELS 3 Zrotation Yrotation Xrotation
							JOINT LeftHand
							{
								OFFSET 3.11059 -0.00000 0.00000
								CHANNELS 3 Zrotation Yrotation Xrotation
								JOINT LeftFingerBase
								{
									OFFSET 0 0 0
									CHANNELS 3 Zrotation Yrotation Xrotation
									JOINT LeftHandIndex1
									{
										OFFSET 0.41963 -0.00000 0.00000
										CHANNELS 3 Zrotation Yrotation Xrotation
										End Site
										{
											OFFSET 0.33831 -0.00000 0.00000
										}
									}
								}
								JOINT LThumb
								{
									OFFSET 0 0 0
									CHANNELS 3 Zrotation Yrotation Xrotation
									End Site
									{
										OFFSET 0.34348 -0.00000 0.34348
									}
								}
							}
						}
					}
				}
				JOINT RightShoulder
				{
					OFFSET 0 0 0
					CHANNELS 3 Zrotation Yrotation Xrotation
					JOINT RightArm
					{
						OFFSET -2.94710 0.68072 0.32187
						CHANNELS 3 Zrotation Yrotation Xrotation
						JOINT RightForeArm
						{
							OFFSET -5.25396 -0.00000 -0.00000
							CHANNELS 3 Zrotation Yrotation Xrotation
							JOINT RightHand
							{
								OFFSET -3.10567 -0.00000 0.00000
								CHANNELS 3 Zrotation Yrotation Xrotation
								JOINT RightFingerBase
								{
									OFFSET 0 0 0
									CHANNELS 3 Zrotation Yrotation Xrotation
									JOINT RightHandIndex1
									{
										OFFSET -0.49868 -0.00000 0.00000
										CHANNELS 3 Zrotation Yrotation Xrotation
										End Site
										{
											OFFSET -0.40204 -0.00000 0.00000
										}
									}
								}
								JOINT RThumb
								{
									OFFSET 0 0 0
									CHANNELS 3 Zrotation Yrotation Xrotation
									End Site
									{
										OFFSET -0.40818 -0.00000 0.40818
									}
								}
							}
						}
					}
				}
			}
		}
	}
}
MOTION
Frames: 5
Frame Time: .0083333
10.1372 16.0827 -2.49 0 0 0 0 0 0 -21 0 0 0 0 0 0 0 0 0 0 0 0 0 0 21 0 0 0 0 0 0 0 0 0 0 0 0 0 0 0 0 0 0 0 0 0 0 -16 0 0 21 0 0 11 0 0 0 -8 0 0 0 0 0 0 0 0 0 0 0 0 0 0 0 0 0 0 0 0 8 0 0 0 0 0 0 0 0 0 0 0 0 0 0 0 0 0
10.1372 16.0827 -2.4900 -1.5468 -8.1471 19.7814 0.0000 0.0000 0.0000 -17.8377 -13.0968 -21.2664 1.1518 6.8143 19.1663 0.6081 -1.3837 -14.3213 0.6206 -5.0416 -14.0272 0.0000 0.0000 0.0000 17.8548 31.0543 -23.9650 -2.8550 -10.4565 30.4679 -0.6692 -3.9786 -17.4065 -0.1239 2.2696 -6.2512 0.8419 -0.5224 -21.9282 0.6222 -0.9465 -6.4284 -0.0570 -0.4774 5.2220 -0.6460 -3.7713 -15.6910 0.4302 -5.5355 29.6366 -0.5736 -2.5147 12.4424 0.0000 -0.0000 0.0000 -78.7535 7.7129 56.2287 15.1758 -24.3905 -3.2982 -0.0000 0.0000 -43.3191 25.4365 -0.7612 -0.3620 -7.1250 0.0000 -0.0000 -0.8842 29.1364 0.3419 0.0000 -0.0000 0.0000 86.1851 -7.0864 14.2851 -13.3156 21.7478 -2.5690 0.0000 -0.0000 -0.9509 -15.1349 -14.6055 3.9017 7.1250 -0.0000 -0.0000 11.4715 -44.7749 0.0646
10.1169 16.0768 -2.4923 -1.4454 -7.9521 19.7977 0.0000 0.0000 0.0000 -17.8084 -13.2396 -21.4007 1.1703 6.8668 19.3214 0.6122 -1.4602 -14.3520 0.6399 -5.1176 -14.2444 0.0000 0.0000 0.0000 17.8013 31.2440 -24.0528 -2.8983 -10.5285 30.7057 -0.6663 -4.3124 -17.5849 -0.1212 2.2443 -6.1813 0.8264 -0.4138 -21.9287 0.4579 -0.7891 -6.3854 -0.1845 -0.3999 5.2674 -0.6214 -3.7091 -15.4227 0.4877 -5.4691 29.6733 -0.5397 -2.4762 12.4023 -0.0000 0.0000 0.0000 -78.4636 7.5132 56.7378 15.3037 -24.5675 -3.3512 -0.0000 0.0000 -43.7228 25.9297 -1.4948 -0.7267 -7.1250 0.0000 -0.0000 -0.5003 28.3176 0.2031 -0.0000 0.0000 0.0000 86.3872 -7.1509 13.8709 -13.3991 21.8692 -2.6001 0.0000 -0.0000 -1.0094 -15.0832 -14.6487 3.8990 7.1250 -0.0000 -0.0000 11.5298 -44.8123 0.0542
10.0958 16.0688 -2.4810 -1.3857 -7.9613 19.7611 0.0000 0.0000 0.0000 -17.7992 -13.3002 -21.3660 1.1864 6.9124 19.4560 0.6236 -1.3870 -14.5066 0.6489 -5.1528 -14.3448 0.0000 0.0000 0.0000 17.8216 31.5080 -23.9988 -2.9391 -10.5958 30.9286 -0.6655 -4.5625 -17.7393 -0.1186 2.2204 -6.1151 0.6913 -0.4312 -21.9285 0.4690 -0.7832 -6.3523 -0.0941 -0.3969 5.3053 -0.2600 -3.3502 -15.3177 0.4818 -5.0555 29.8189 -0.5403 -2.2509 12.4254 0.0000 0.0000 0.0000 -78.5059 7.4466 56.6575 15.2679 -24.5181 -3.3363 -0.0000 0.0000 -43.8283 25.9495 -1.8064 -0.8788 -7.1250 0.0000 -0.0000 -0.4867 27.9709 0.2016 0.0000 0.0000 0.0000 86.3158 -7.1284 13.8252 -13.3510 21.7994 -2.5822 0.0000 -0.0000 -0.9872 -15.0491 -14.6104 3.8799 7.1250 -0.0000 -0.0000 11.5503 -44.7698 0.0665
10.0791 16.0644 -2.4773 -1.3050 -7.8152 19.8366 0.0000 0.0000 0.0000 -17.7703 -13.4736 -21.4823 1.2022 6.9566 19.5870 0.6293 -1.3571 -14.5821 0.6664 -5.2206 -14.5387 0.0000 0.0000 0.0000 17.7593 31.6224 -24.1545 -2.9820 -10.6658 31.1610 -0.6715 -4.7341 -17.9190 -0.1125 2.1623 -5.9544 0.6695 -0.4283 -21.8903 0.3983 -0.7689 -6.3458 -0.1536 -0.3900 5.2921 -0.2510 -3.2036 -15.4322 0.5899 -4.8897 30.1315 -0.4825 -2.1560 12.5793 -0.0000 0.0000 0.0000 -78.4678 7.3253 56.3913 15.3447 -24.6241 -3.3683 -0.0000 0.0000 -43.6899 25.9049 -1.5740 -0.7643 -7.1250 0.0000 -0.0000 -0.5199 28.2298 0.2121 -0.0000 0.0000 0.0000 86.3741 -7.2144 13.7907 -13.4410 21.9300 -2.6157 0.0000 -0.0000 -1.0050 -15.0936 -14.6402 3.8996 7.1250 -0.0000 -0.0000 11.5181 -44.8050 0.0562
